<?xml version="1.0" encoding="utf-8"?>
<!-- Generator: Adobe Illustrator 26.0.2, SVG Export Plug-In . SVG Version: 6.00 Build 0)  -->
<svg version="1.1"
	 id="svg2633" xmlns:cc="http://web.resource.org/cc/" xmlns:dc="http://purl.org/dc/elements/1.1/" xmlns:rdf="http://www.w3.org/1999/02/22-rdf-syntax-ns#" xmlns:svg="http://www.w3.org/2000/svg"
	 xmlns="http://www.w3.org/2000/svg" xmlns:xlink="http://www.w3.org/1999/xlink" x="0px" y="0px" viewBox="0 0 44.1 44.5"
	 style="enable-background:new 0 0 44.1 44.5;" xml:space="preserve">
<style type="text/css">
	.st0{fill-rule:evenodd;clip-rule:evenodd;fill:#EF2929;}
	.st1{fill-rule:evenodd;clip-rule:evenodd;fill:#A40000;}
	.st2{fill-rule:evenodd;clip-rule:evenodd;fill:#EEEEEC;}
	
		.st3{opacity:0.75;fill-rule:evenodd;clip-rule:evenodd;fill:url(#path3678_00000146490435203378664530000015868813576294960033_);enable-background:new    ;}
</style>
<g id="layer1" transform="translate(-19.315 -20.92)">
	<path id="path3676" class="st0" d="M63.4,43.1c0.1,12.2-9.7,22.1-21.9,22.2s-22.1-9.7-22.2-21.9c0-0.1,0-0.2,0-0.3
		C19.2,31,29,21,41.2,20.9s22.1,9.7,22.2,21.9C63.4,42.9,63.4,43,63.4,43.1z"/>
	<g id="g3750" transform="matrix(.58241 0 0 .62445 -298.36 -439.03)">
		<path id="path3752" class="st1" d="M577.8,757.5c-7.1,2.3-12.3,9-12.3,16.9c0,9.9,8,17.8,17.8,17.8s17.8-8,17.8-17.8
			c0-7.9-5.2-14.6-12.3-16.9v6.4c3.8,2,6.5,5.9,6.5,10.5c0,6.6-5.4,12-12,12c-6.6,0-12-5.4-12-12c0-4.6,2.6-8.5,6.4-10.5
			L577.8,757.5L577.8,757.5z"/>
		<path id="path3754" class="st1" d="M580.3,753.7v21.2h6v-21.2H580.3z"/>
	</g>
	<g id="g3756" transform="matrix(.58241 0 0 .58241 -298.36 -406.82)">
		<path id="path3758" class="st2" d="M577.8,756.6c-7.1,2.3-12.3,9-12.3,16.9c0,9.9,8,17.8,17.8,17.8s17.8-8,17.8-17.8
			c0-7.9-5.2-14.6-12.3-16.9v6.4c3.8,2,6.5,5.9,6.5,10.5c0,6.6-5.4,12-12,12c-6.6,0-12-5.4-12-12c0-4.6,2.6-8.5,6.4-10.5
			L577.8,756.6L577.8,756.6z"/>
		<path id="path3760" class="st2" d="M580.3,752.8V774h6v-21.2H580.3z"/>
	</g>
	
		<linearGradient id="path3678_00000132082794723323224660000004467452727134977442_" gradientUnits="userSpaceOnUse" x1="199.0461" y1="-39.715" x2="199.0461" y2="-68.7671" gradientTransform="matrix(0.7016 0 0 -0.7362 -98.2616 -6.0866)">
		<stop  offset="0" style="stop-color:#FFFFFF"/>
		<stop  offset="1" style="stop-color:#FFFFFF;stop-opacity:0"/>
	</linearGradient>
	
		<path id="path3678" style="opacity:0.75;fill-rule:evenodd;clip-rule:evenodd;fill:url(#path3678_00000132082794723323224660000004467452727134977442_);enable-background:new    ;" d="
		M57.1,35.1c0,6.6-7,12-15.7,12s-15.7-5.4-15.7-12s7-12,15.7-12S57.1,28.5,57.1,35.1z"/>
</g>
</svg>
